<svg width="31" height="9" viewBox="0 0 31 9" fill="none" xmlns="http://www.w3.org/2000/svg">
<path d="M23.1964 0.345161C23.4107 0.291525 23.6429 0.312983 23.8214 0.398796L30.6786 4.15346C30.7857 4.21783 30.8572 4.30365 30.8572 4.4002C30.8572 4.49675 30.7857 4.5933 30.6786 4.65765L23.8214 8.46595C23.6429 8.55176 23.4107 8.57322 23.1964 8.51959C23 8.46595 22.8572 8.34794 22.8572 8.20849V5.80551L0.571437 5.80551C0.25 5.80551 0 5.65532 0 5.46222L0 3.40253C0 3.20942 0.25 3.05924 0.571437 3.05924L22.8572 3.05924V0.656253C22.8572 0.516786 22.9822 0.398796 23.1964 0.345161Z" fill="#272822"/>
</svg>
