<svg width="31" height="8" viewBox="0 0 31 8" fill="none" xmlns="http://www.w3.org/2000/svg">
<path d="M23.1964 0.0309468C23.4107 -0.0211339 23.6429 -0.000298082 23.8214 0.0830274L30.6786 3.72886C30.7857 3.79137 30.8572 3.87469 30.8572 3.96845C30.8572 4.0622 30.7857 4.15595 30.6786 4.21844L23.8214 7.91635C23.6429 7.99968 23.4107 8.02051 23.1964 7.96843C23 7.91635 22.8572 7.80176 22.8572 7.66636V5.33303L0.571437 5.33303C0.25 5.33303 0 5.18719 0 4.99969L0 2.99969C0 2.81219 0.25 2.66635 0.571437 2.66635L22.8572 2.66635V0.333022C22.8572 0.197598 22.9822 0.0830275 23.1964 0.0309468Z" fill="white"/>
</svg>
