<?xml version="1.0" encoding="UTF-8"?>
<svg xmlns="http://www.w3.org/2000/svg" xmlns:xlink="http://www.w3.org/1999/xlink" width="30pt" height="30pt" viewBox="0 0 30 30" version="1.1">
<g id="surface1">
<path style=" stroke:none;fill-rule:nonzero;fill:rgb(0%,0%,0%);fill-opacity:1;" d="M 22.035156 3.085938 C 22.550781 4.699219 22.792969 6.390625 22.753906 8.085938 C 22.628906 15.25 17.601562 21.386719 10.605469 22.925781 C 8.277344 23.421875 5.863281 23.390625 3.542969 22.832031 C 3.441406 22.804688 3.335938 22.84375 3.273438 22.925781 C 3.210938 23.011719 3.203125 23.125 3.257812 23.214844 C 5.988281 27.59375 10.855469 30.179688 16.011719 29.988281 C 22.546875 29.765625 28.125 25.191406 29.617188 18.824219 C 31.113281 12.457031 28.152344 5.878906 22.398438 2.769531 C 22.304688 2.722656 22.191406 2.738281 22.109375 2.804688 C 22.03125 2.875 22 2.984375 22.035156 3.085938 Z M 26.074219 8.984375 C 25.921875 8.742188 25.996094 8.421875 26.238281 8.269531 C 26.480469 8.121094 26.800781 8.195312 26.953125 8.4375 C 27.289062 8.980469 27.589844 9.550781 27.84375 10.136719 C 27.925781 10.308594 27.90625 10.507812 27.796875 10.660156 C 27.6875 10.808594 27.503906 10.890625 27.316406 10.871094 C 27.132812 10.847656 26.972656 10.726562 26.898438 10.554688 C 26.664062 10.011719 26.386719 9.488281 26.074219 8.984375 Z M 27.898438 20.886719 C 27.789062 21.152344 27.488281 21.277344 27.222656 21.171875 C 26.957031 21.0625 26.832031 20.761719 26.9375 20.496094 C 27.917969 18.136719 28.175781 15.539062 27.675781 13.035156 C 27.640625 12.851562 27.703125 12.667969 27.839844 12.542969 C 27.980469 12.421875 28.171875 12.382812 28.347656 12.441406 C 28.523438 12.5 28.65625 12.648438 28.691406 12.828125 C 29.230469 15.535156 28.953125 18.335938 27.898438 20.886719 Z M 27.898438 20.886719 "/>
<path style=" stroke:none;fill-rule:nonzero;fill:rgb(0%,0%,0%);fill-opacity:1;" d="M 9.828125 14.484375 C 12.398438 14.484375 14.484375 12.398438 14.484375 9.828125 C 14.484375 7.257812 12.398438 5.171875 9.828125 5.171875 C 7.257812 5.171875 5.171875 7.257812 5.171875 9.828125 C 5.175781 12.398438 7.257812 14.480469 9.828125 14.484375 Z M 9.828125 6.207031 C 10.113281 6.207031 10.34375 6.4375 10.34375 6.722656 C 10.34375 7.011719 10.113281 7.242188 9.828125 7.242188 C 8.398438 7.242188 7.242188 8.398438 7.242188 9.828125 C 7.242188 10.113281 7.011719 10.34375 6.722656 10.34375 C 6.4375 10.34375 6.207031 10.113281 6.207031 9.828125 C 6.210938 7.828125 7.828125 6.210938 9.828125 6.207031 Z M 9.828125 6.207031 "/>
<path style=" stroke:none;fill-rule:nonzero;fill:rgb(0%,0%,0%);fill-opacity:1;" d="M 9.828125 3.101562 C 10.113281 3.101562 10.34375 2.871094 10.34375 2.585938 L 10.34375 0.515625 C 10.34375 0.230469 10.113281 0 9.828125 0 C 9.542969 0 9.308594 0.230469 9.308594 0.515625 L 9.308594 2.585938 C 9.308594 2.871094 9.542969 3.101562 9.828125 3.101562 Z M 9.828125 3.101562 "/>
<path style=" stroke:none;fill-rule:nonzero;fill:rgb(0%,0%,0%);fill-opacity:1;" d="M 9.308594 17.070312 L 9.308594 19.136719 C 9.308594 19.421875 9.542969 19.65625 9.828125 19.65625 C 10.113281 19.65625 10.34375 19.421875 10.34375 19.136719 L 10.34375 17.070312 C 10.34375 16.785156 10.113281 16.550781 9.828125 16.550781 C 9.542969 16.550781 9.308594 16.785156 9.308594 17.070312 Z M 9.308594 17.070312 "/>
<path style=" stroke:none;fill-rule:nonzero;fill:rgb(0%,0%,0%);fill-opacity:1;" d="M 16.550781 9.828125 C 16.550781 10.113281 16.785156 10.34375 17.070312 10.34375 L 19.136719 10.34375 C 19.421875 10.34375 19.65625 10.113281 19.65625 9.828125 C 19.65625 9.542969 19.421875 9.308594 19.136719 9.308594 L 17.070312 9.308594 C 16.785156 9.308594 16.550781 9.542969 16.550781 9.828125 Z M 16.550781 9.828125 "/>
<path style=" stroke:none;fill-rule:nonzero;fill:rgb(0%,0%,0%);fill-opacity:1;" d="M 3.101562 9.828125 C 3.101562 9.542969 2.871094 9.308594 2.585938 9.308594 L 0.515625 9.308594 C 0.230469 9.308594 0 9.542969 0 9.828125 C 0 10.113281 0.230469 10.34375 0.515625 10.34375 L 2.585938 10.34375 C 2.871094 10.34375 3.101562 10.113281 3.101562 9.828125 Z M 3.101562 9.828125 "/>
<path style=" stroke:none;fill-rule:nonzero;fill:rgb(0%,0%,0%);fill-opacity:1;" d="M 4.339844 5.074219 C 4.542969 5.269531 4.867188 5.265625 5.066406 5.066406 C 5.265625 4.867188 5.269531 4.542969 5.074219 4.339844 L 3.609375 2.878906 C 3.40625 2.683594 3.085938 2.683594 2.882812 2.882812 C 2.683594 3.085938 2.683594 3.40625 2.878906 3.609375 Z M 4.339844 5.074219 "/>
<path style=" stroke:none;fill-rule:nonzero;fill:rgb(0%,0%,0%);fill-opacity:1;" d="M 14.582031 14.582031 C 14.378906 14.785156 14.378906 15.113281 14.582031 15.3125 L 16.046875 16.777344 C 16.25 16.972656 16.570312 16.96875 16.769531 16.769531 C 16.96875 16.570312 16.972656 16.25 16.777344 16.046875 L 15.3125 14.582031 C 15.113281 14.378906 14.785156 14.378906 14.582031 14.582031 Z M 14.582031 14.582031 "/>
<path style=" stroke:none;fill-rule:nonzero;fill:rgb(0%,0%,0%);fill-opacity:1;" d="M 14.949219 5.222656 C 15.085938 5.222656 15.21875 5.167969 15.3125 5.074219 L 16.777344 3.609375 C 16.910156 3.480469 16.964844 3.289062 16.917969 3.105469 C 16.871094 2.925781 16.730469 2.785156 16.550781 2.738281 C 16.367188 2.691406 16.175781 2.742188 16.046875 2.878906 L 14.582031 4.339844 C 14.433594 4.488281 14.390625 4.710938 14.46875 4.90625 C 14.550781 5.097656 14.738281 5.222656 14.949219 5.222656 Z M 14.949219 5.222656 "/>
<path style=" stroke:none;fill-rule:nonzero;fill:rgb(0%,0%,0%);fill-opacity:1;" d="M 3.609375 16.777344 L 5.074219 15.3125 C 5.269531 15.109375 5.265625 14.789062 5.066406 14.589844 C 4.867188 14.390625 4.542969 14.386719 4.339844 14.582031 L 2.878906 16.046875 C 2.742188 16.175781 2.691406 16.367188 2.738281 16.546875 C 2.785156 16.730469 2.925781 16.871094 3.105469 16.917969 C 3.289062 16.964844 3.480469 16.910156 3.609375 16.777344 Z M 3.609375 16.777344 "/>
</g>
</svg>
