<svg width="24" height="28" viewBox="0 0 24 28" fill="none" xmlns="http://www.w3.org/2000/svg">
<path d="M19.5 2C21.9844 2 24 4.01562 24 6.49999V21.5C24 23.9843 21.9844 26 19.5 26H16.5625V16.7031H19.6719L20.1406 13.0781H16.5625V10.7656C16.5625 9.71873 16.8438 9.01561 18.3594 9.01561L20.2656 9V5.76562C19.9375 5.71875 18.7969 5.62499 17.4844 5.62499C14.7187 5.62499 12.8125 7.31248 12.8125 10.4062V13.0781H9.68748V16.7031H12.8125V26H4.49999C2.01562 26 0 23.9843 0 21.5V6.49999C0 4.01562 2.01562 2 4.49999 2H19.5Z" fill="#75715E"/>
</svg>
