<svg width="28" height="28" viewBox="0 0 28 28" fill="none" xmlns="http://www.w3.org/2000/svg">
<g clip-path="url(#clip0)">
<path d="M1.62501 11.0313L14 26.8906L0.4375 17.0469C0.0625077 16.7656 -0.0937618 16.2813 0.0468671 15.8438L1.62501 11.0313ZM8.84376 11.0313H19.1563L14 26.8906L8.84376 11.0313ZM5.75001 1.46874L8.84376 11.0313H1.62501L4.71877 1.46874C4.89065 0.984377 5.57815 0.984377 5.75001 1.46874ZM26.375 11.0313L27.9531 15.8438C28.0937 16.2813 27.9375 16.7656 27.5625 17.0469L14 26.8906L26.375 11.0313ZM26.375 11.0313H19.1563L22.25 1.46877C22.4219 0.984404 23.1094 0.984404 23.2812 1.46877L26.375 11.0313Z" fill="#75715E"/>
</g>
<defs>
<clipPath id="clip0">
<rect width="28" height="28" fill="white"/>
</clipPath>
</defs>
</svg>
