<svg width="24" height="28" viewBox="0 0 24 28" fill="none" xmlns="http://www.w3.org/2000/svg">
<path d="M3.70314 22.0937H7.31251V11.25H3.70314V22.0937ZM7.54687 7.90625C7.53126 6.84375 6.76564 6.03126 5.53126 6.03126C4.29688 6.03126 3.48439 6.84375 3.48439 7.90625C3.48439 8.93749 4.26562 9.78124 5.48439 9.78124H5.5C6.76564 9.78124 7.54687 8.93749 7.54687 7.90625ZM16.6875 22.0937H20.2969V15.875C20.2969 12.5469 18.5156 11 16.1406 11C14.2031 11 13.3437 12.0781 12.875 12.8281H12.9062V11.25H9.29687C9.29687 11.25 9.34374 12.2656 9.29687 22.0937H12.9062V16.0312C12.9062 15.7187 12.9219 15.3906 13.0156 15.1562C13.2812 14.5156 13.875 13.8437 14.875 13.8437C16.1719 13.8437 16.6875 14.8281 16.6875 16.2968V22.0937ZM24 6.49999V21.5C24 23.9843 21.9844 26 19.5 26H4.50001C2.01564 26 2.67029e-05 23.9843 2.67029e-05 21.5V6.49999C2.67029e-05 4.01562 2.01564 2 4.50001 2H19.5C21.9844 2 24 4.01562 24 6.49999Z" fill="#87C232"/>
</svg>
